<svg width="628" height="169" viewBox="0 0 628 169" fill="none" xmlns="http://www.w3.org/2000/svg">
<path d="M16.6753 33.6887L73.5996 5.22656V8.60489C73.5996 18.3015 68.1212 27.1658 59.4483 31.5022L47.1644 37.6441C31.9869 45.2329 22.3996 60.7455 22.3996 77.7145V79.0049C22.3996 98.0355 42.4268 110.413 59.4483 101.902L73.5996 94.8266V114.96C73.5996 122.233 69.4908 128.881 62.9861 132.133L18.8618 154.195C14.6064 156.323 9.59961 153.229 9.59961 148.471V45.1374C9.59961 40.2891 12.3388 35.8569 16.6753 33.6887Z" fill="#F1F1F1"/>
<path d="M16.6753 33.6887L73.5996 5.22656V8.60489C73.5996 18.3015 68.1212 27.1658 59.4483 31.5022L47.1644 37.6441C31.9869 45.2329 22.3996 60.7455 22.3996 77.7145V79.0049C22.3996 98.0355 42.4268 110.413 59.4483 101.902L73.5996 94.8266V114.96C73.5996 122.233 69.4908 128.881 62.9861 132.133L18.8618 154.195C14.6064 156.323 9.59961 153.229 9.59961 148.471V45.1374C9.59961 40.2891 12.3388 35.8569 16.6753 33.6887Z" fill="url(#paint0_linear_1336_14674)"/>
<path d="M143.325 33.6887L86.4004 5.22656V8.60489C86.4004 18.3015 91.8788 27.1658 100.552 31.5022L112.836 37.6441C128.013 45.2329 137.6 60.7455 137.6 77.7145V79.0049C137.6 98.0355 117.573 110.413 100.552 101.902L86.4004 94.8266V114.96C86.4004 122.233 90.5092 128.881 97.0139 132.133L141.138 154.195C145.394 156.323 150.4 153.229 150.4 148.471V45.1374C150.4 40.2891 147.661 35.8569 143.325 33.6887Z" fill="url(#paint1_linear_1336_14674)"/>
<path d="M593.599 118V70.179H605.724V83.177L603.881 83.371C604.075 80.5903 604.915 78.133 606.403 75.999C607.89 73.865 609.701 72.216 611.835 71.052C614.033 69.8233 616.264 69.209 618.528 69.209C620.144 69.209 621.664 69.4353 623.087 69.888C624.574 70.276 626.094 70.955 627.646 71.925L621.826 82.789C621.114 82.401 620.209 82.0453 619.11 81.722C618.01 81.3987 616.911 81.237 615.812 81.237C614.518 81.237 613.257 81.4633 612.029 81.916C610.865 82.3687 609.798 83.08 608.828 84.05C607.922 85.02 607.179 86.3133 606.597 87.93C606.338 88.8353 606.112 89.9993 605.918 91.422C605.788 92.78 605.724 94.7846 605.724 97.436V118H593.599Z" fill="#F1F1F1"/>
<path d="M564.46 118.97C560.321 118.97 556.764 118.291 553.79 116.933C550.815 115.575 548.358 113.764 546.418 111.501C544.542 109.173 543.152 106.554 542.247 103.644C541.341 100.669 540.889 97.5653 540.889 94.332C540.889 91.228 541.341 88.1887 542.247 85.214C543.152 82.2393 544.51 79.5557 546.321 77.163C548.131 74.7703 550.459 72.8627 553.305 71.44C556.215 69.9527 559.674 69.209 563.684 69.209C567.434 69.209 570.7 69.8557 573.481 71.149C576.261 72.3777 578.557 74.1237 580.368 76.387C582.178 78.5857 583.536 81.1723 584.442 84.147C585.412 87.1217 585.897 90.2903 585.897 93.653C585.897 94.1057 585.864 94.7523 585.8 95.593C585.8 96.369 585.735 97.2097 585.606 98.115H552.917C553.24 101.542 554.501 104.129 556.7 105.875C558.963 107.621 561.776 108.494 565.139 108.494C567.596 108.494 569.989 108.074 572.317 107.233C574.645 106.328 576.714 105.067 578.525 103.45L584.539 111.598C582.275 113.344 580.141 114.767 578.137 115.866C576.132 116.965 574.03 117.741 571.832 118.194C569.698 118.711 567.24 118.97 564.46 118.97ZM573.966 92.101C574.095 91.5837 574.192 91.0663 574.257 90.549C574.386 90.0317 574.451 89.5467 574.451 89.094C574.451 87.736 574.192 86.475 573.675 85.311C573.157 84.0823 572.446 83.0153 571.541 82.11C570.635 81.2047 569.536 80.5257 568.243 80.073C567.014 79.5557 565.591 79.297 563.975 79.297C561.582 79.297 559.577 79.782 557.961 80.752C556.344 81.722 555.115 82.983 554.275 84.535C553.499 86.0223 553.014 87.5743 552.82 89.191H578.04L573.966 92.101Z" fill="#F1F1F1"/>
<path d="M526.176 118L512.305 96.1751L504.836 104.517V89.4821L523.169 70.1791H538.495L521.132 88.0271L540.532 118H526.176ZM493.778 118V50.3911H505.903V118H493.778Z" fill="#F1F1F1"/>
<path d="M462.19 118.97C457.534 118.97 453.395 117.903 449.774 115.769C446.153 113.635 443.275 110.693 441.141 106.942C439.072 103.127 438.037 98.8263 438.037 94.041C438.037 89.191 439.072 84.923 441.141 81.237C443.21 77.4863 446.056 74.544 449.677 72.41C453.363 70.276 457.534 69.209 462.19 69.209C466.781 69.209 470.888 70.276 474.509 72.41C478.13 74.544 480.976 77.4863 483.045 81.237C485.114 84.923 486.149 89.191 486.149 94.041C486.149 98.8263 485.114 103.094 483.045 106.845C480.976 110.596 478.13 113.57 474.509 115.769C470.888 117.903 466.781 118.97 462.19 118.97ZM462.19 108.397C464.647 108.397 466.749 107.815 468.495 106.651C470.306 105.487 471.664 103.838 472.569 101.704C473.539 99.57 474.024 97.0157 474.024 94.041C474.024 91.0017 473.539 88.4473 472.569 86.378C471.664 84.244 470.306 82.6273 468.495 81.528C466.749 80.364 464.647 79.782 462.19 79.782C459.668 79.782 457.502 80.364 455.691 81.528C453.88 82.6273 452.49 84.244 451.52 86.378C450.55 88.4473 450.065 91.0017 450.065 94.041C450.065 97.0157 450.55 99.57 451.52 101.704C452.49 103.838 453.88 105.487 455.691 106.651C457.502 107.815 459.668 108.397 462.19 108.397Z" fill="#F1F1F1"/>
<path d="M390.94 118V50.3911H413.25C420.881 50.3911 426.636 52.0401 430.516 55.3381C434.396 58.5714 436.336 63.4538 436.336 69.9851C436.336 76.5164 434.364 81.4958 430.419 84.9231C426.475 88.3504 420.752 90.0641 413.25 90.0641H403.356V118H390.94ZM403.356 78.9091H411.989C415.74 78.9091 418.65 78.2624 420.719 76.9691C422.789 75.6111 423.823 73.3154 423.823 70.0821C423.823 66.9781 422.821 64.8118 420.816 63.5831C418.876 62.2898 415.934 61.6431 411.989 61.6431H403.356V78.9091Z" fill="#F1F1F1"/>
<path d="M361.219 118.97C357.081 118.97 353.524 118.291 350.549 116.933C347.575 115.575 345.117 113.764 343.177 111.501C341.302 109.173 339.912 106.554 339.006 103.644C338.101 100.669 337.648 97.5653 337.648 94.332C337.648 91.228 338.101 88.1887 339.006 85.214C339.912 82.2393 341.27 79.5557 343.08 77.163C344.891 74.7703 347.219 72.8627 350.064 71.44C352.974 69.9527 356.434 69.209 360.443 69.209C364.194 69.209 367.46 69.8557 370.24 71.149C373.021 72.3777 375.317 74.1237 377.127 76.387C378.938 78.5857 380.296 81.1723 381.201 84.147C382.171 87.1217 382.656 90.2903 382.656 93.653C382.656 94.1057 382.624 94.7523 382.559 95.593C382.559 96.369 382.495 97.2097 382.365 98.115H349.676C350 101.542 351.261 104.129 353.459 105.875C355.723 107.621 358.536 108.494 361.898 108.494C364.356 108.494 366.748 108.074 369.076 107.233C371.404 106.328 373.474 105.067 375.284 103.45L381.298 111.598C379.035 113.344 376.901 114.767 374.896 115.866C372.892 116.965 370.79 117.741 368.591 118.194C366.457 118.711 364 118.97 361.219 118.97ZM370.725 92.101C370.855 91.5837 370.952 91.0663 371.016 90.549C371.146 90.0317 371.21 89.5467 371.21 89.094C371.21 87.736 370.952 86.475 370.434 85.311C369.917 84.0823 369.206 83.0153 368.3 82.11C367.395 81.2047 366.296 80.5257 365.002 80.073C363.774 79.5557 362.351 79.297 360.734 79.297C358.342 79.297 356.337 79.782 354.72 80.752C353.104 81.722 351.875 82.983 351.034 84.535C350.258 86.0223 349.773 87.5743 349.579 89.191H374.799L370.725 92.101Z" fill="#F1F1F1"/>
<path d="M303.137 118V70.179H315.262V83.177L313.419 83.371C313.613 80.5903 314.453 78.133 315.941 75.999C317.428 73.865 319.239 72.216 321.373 71.052C323.571 69.8233 325.802 69.209 328.066 69.209C329.682 69.209 331.202 69.4353 332.625 69.888C334.112 70.276 335.632 70.955 337.184 71.925L331.364 82.789C330.652 82.401 329.747 82.0453 328.648 81.722C327.548 81.3987 326.449 81.237 325.35 81.237C324.056 81.237 322.795 81.4633 321.567 81.916C320.403 82.3687 319.336 83.08 318.366 84.05C317.46 85.02 316.717 86.3133 316.135 87.93C315.876 88.8353 315.65 89.9993 315.456 91.422C315.326 92.78 315.262 94.7846 315.262 97.436V118H303.137Z" fill="#F1F1F1"/>
<path d="M267.263 118.97C263.383 118.97 260.117 118.194 257.466 116.642C254.879 115.09 252.939 112.892 251.646 110.046C250.417 107.201 249.803 103.871 249.803 100.055V70.1792H261.831V97.0482C261.831 99.2469 262.089 101.219 262.607 102.965C263.124 104.647 264.029 106.005 265.323 107.039C266.681 108.009 268.524 108.494 270.852 108.494C273.697 108.494 275.831 107.686 277.254 106.069C278.741 104.453 279.743 102.222 280.261 99.3762C280.843 96.4662 281.134 93.0712 281.134 89.1912V70.1792H293.162V118H281.134V107.621L282.783 108.591C281.36 112.277 279.258 114.929 276.478 116.545C273.697 118.162 270.625 118.97 267.263 118.97Z" fill="#F1F1F1"/>
<path d="M198.499 118V50.3911H220.809C228.44 50.3911 234.195 52.0401 238.075 55.3381C241.955 58.5714 243.895 63.4538 243.895 69.9851C243.895 76.5164 241.923 81.4958 237.978 84.9231C234.033 88.3504 228.31 90.0641 220.809 90.0641H210.915V118H198.499ZM210.915 78.9091H219.548C223.299 78.9091 226.209 78.2624 228.278 76.9691C230.347 75.6111 231.382 73.3154 231.382 70.0821C231.382 66.9781 230.38 64.8118 228.375 63.5831C226.435 62.2898 223.493 61.6431 219.548 61.6431H210.915V78.9091Z" fill="#F1F1F1"/>
<defs>
<linearGradient id="paint0_linear_1336_14674" x1="9.59961" y1="107.627" x2="79.9996" y2="107.627" gradientUnits="userSpaceOnUse">
<stop stop-color="#F1F1F1"/>
<stop offset="1" stop-color="#8B8B8B"/>
</linearGradient>
<linearGradient id="paint1_linear_1336_14674" x1="150.4" y1="107.627" x2="80.0004" y2="107.627" gradientUnits="userSpaceOnUse">
<stop stop-color="#F1F1F1"/>
<stop offset="1" stop-color="#8B8B8B"/>
</linearGradient>
</defs>
</svg>
